<?xml version="1.0" encoding="utf-8"?>
<!-- Generator: Adobe Illustrator 19.1.0, SVG Export Plug-In . SVG Version: 6.00 Build 0)  -->
<svg version="1.1" id="Layer_1" xmlns="http://www.w3.org/2000/svg" xmlns:xlink="http://www.w3.org/1999/xlink" x="0px" y="0px"
	 viewBox="0 0 32 32" style="enable-background:new 0 0 32 32;" xml:space="preserve">
<style type="text/css">
	.st0{fill:#B7B7B7;}
</style>
<path class="st0" d="M28.5,2H3.5C2.7,2,2,2.7,2,3.5v24.9C2,29.3,2.7,30,3.5,30H17V19.2h-3.6v-4.2H17v-3.1c0-3.6,2.2-5.6,5.4-5.6
	c1.5,0,2.9,0.1,3.3,0.2v3.8l-2.2,0c-1.8,0-2.1,0.8-2.1,2.1v2.7h4.2L25,19.2h-3.6V30h7.1c0.9,0,1.5-0.7,1.5-1.5V3.5
	C30,2.7,29.3,2,28.5,2z"/>
</svg>
