<?xml version="1.0" encoding="utf-8"?>
<!-- Generator: Adobe Illustrator 19.1.0, SVG Export Plug-In . SVG Version: 6.00 Build 0)  -->
<svg version="1.1" id="Layer_1" xmlns="http://www.w3.org/2000/svg" xmlns:xlink="http://www.w3.org/1999/xlink" x="0px" y="0px"
	 viewBox="0 0 32 32" style="enable-background:new 0 0 32 32;" xml:space="preserve">
<style type="text/css">
	.st0{fill:#eb432b;}
</style>
<g>
	<path class="st0" d="M16,4.5c3.7,0,4.2,0,5.7,0.1c1.4,0.1,2.1,0.3,2.6,0.5c0.7,0.3,1.1,0.6,1.6,1c0.5,0.5,0.8,1,1,1.6
		c0.2,0.5,0.4,1.2,0.5,2.6c0.1,1.5,0.1,1.9,0.1,5.7s0,4.2-0.1,5.7c-0.1,1.4-0.3,2.1-0.5,2.6c-0.3,0.7-0.6,1.1-1,1.6
		c-0.5,0.5-1,0.8-1.6,1c-0.5,0.2-1.2,0.4-2.6,0.5c-1.5,0.1-1.9,0.1-5.7,0.1s-4.2,0-5.7-0.1c-1.4-0.1-2.1-0.3-2.6-0.5
		c-0.7-0.3-1.1-0.6-1.6-1c-0.5-0.5-0.8-1-1-1.6c-0.2-0.5-0.4-1.2-0.5-2.6c-0.1-1.5-0.1-1.9-0.1-5.7s0-4.2,0.1-5.7
		C4.7,9,4.9,8.2,5.1,7.7c0.3-0.7,0.6-1.1,1-1.6c0.5-0.5,1-0.8,1.6-1C8.2,4.9,9,4.7,10.3,4.6C11.8,4.5,12.3,4.5,16,4.5 M16,2
		c-3.8,0-4.3,0-5.8,0.1C8.7,2.2,7.7,2.4,6.8,2.7C5.9,3.1,5.1,3.6,4.3,4.3C3.6,5.1,3.1,5.9,2.7,6.8c-0.3,0.9-0.6,1.9-0.7,3.4
		C2,11.7,2,12.2,2,16c0,3.8,0,4.3,0.1,5.8c0.1,1.5,0.3,2.5,0.7,3.4c0.4,0.9,0.8,1.7,1.6,2.5c0.8,0.8,1.6,1.3,2.5,1.6
		c0.9,0.3,1.9,0.6,3.4,0.7c1.5,0.1,2,0.1,5.8,0.1s4.3,0,5.8-0.1c1.5-0.1,2.5-0.3,3.4-0.7c0.9-0.4,1.7-0.8,2.5-1.6
		c0.8-0.8,1.3-1.6,1.6-2.5c0.3-0.9,0.6-1.9,0.7-3.4c0.1-1.5,0.1-2,0.1-5.8s0-4.3-0.1-5.8c-0.1-1.5-0.3-2.5-0.7-3.4
		c-0.4-0.9-0.8-1.7-1.6-2.5c-0.8-0.8-1.6-1.3-2.5-1.6c-0.9-0.3-1.9-0.6-3.4-0.7C20.3,2,19.8,2,16,2L16,2z"/>
	<path class="st0" d="M16,8.8c-4,0-7.2,3.2-7.2,7.2s3.2,7.2,7.2,7.2s7.2-3.2,7.2-7.2S20,8.8,16,8.8z M16,20.7
		c-2.6,0-4.7-2.1-4.7-4.7s2.1-4.7,4.7-4.7s4.7,2.1,4.7,4.7S18.6,20.7,16,20.7z"/>
	<circle class="st0" cx="23.5" cy="8.5" r="1.7"/>
</g>
</svg>
